<svg width="121" height="41" viewBox="0 0 121 41" fill="none" xmlns="http://www.w3.org/2000/svg">
<path d="M17.6223 11.819C15.9182 12.7631 14.498 14.1463 13.5093 15.8249C12.5206 17.5035 11.9995 19.4163 12 21.3644C12.0006 19.4163 11.4794 17.5035 10.4907 15.8249C9.502 14.1463 8.08183 12.7631 6.37775 11.819C8.18184 8.00078 12 6.09169 12 6.09169C12 6.09169 15.8182 8.00078 17.6223 11.819Z" fill="white"/>
<path d="M22.9091 9.36442C21.2488 9.363 19.6066 9.70808 18.0873 10.3776C16.0282 6.91805 12.6436 5.19578 12.4882 5.11533C12.3366 5.03949 12.1695 5 12 5C11.8305 5 11.6634 5.03949 11.5118 5.11533C11.3564 5.19442 7.96636 6.91805 5.91273 10.3776C4.39345 9.70808 2.75117 9.363 1.09091 9.36442C0.801582 9.36442 0.524105 9.47935 0.31952 9.68394C0.114935 9.88852 0 10.166 0 10.4553V15.9099C0.00359936 18.9025 1.12388 21.7861 3.14158 23.9962C5.15929 26.2064 7.92916 27.584 10.9091 27.8594V32.6908L5.94273 30.2062C5.81451 30.1421 5.67492 30.1039 5.53193 30.0937C5.38894 30.0836 5.24534 30.1017 5.10935 30.147C4.97335 30.1923 4.84762 30.264 4.73932 30.3579C4.63103 30.4519 4.54229 30.5662 4.47818 30.6944C4.41407 30.8226 4.37585 30.9622 4.36568 31.1052C4.35552 31.2482 4.37362 31.3918 4.41895 31.5278C4.46429 31.6638 4.53596 31.7895 4.62989 31.8978C4.72381 32.0061 4.83815 32.0949 4.96636 32.159L11.5118 35.4317C11.6634 35.5075 11.8305 35.547 12 35.547C12.1695 35.547 12.3366 35.5075 12.4882 35.4317L19.0336 32.159C19.2926 32.0295 19.4895 31.8025 19.581 31.5278C19.6726 31.2531 19.6513 30.9534 19.5218 30.6944C19.3923 30.4355 19.1653 30.2386 18.8907 30.147C18.616 30.0555 18.3162 30.0768 18.0573 30.2062L13.0909 32.6908V27.8594C16.0708 27.584 18.8407 26.2064 20.8584 23.9962C22.8761 21.7861 23.9964 18.9025 24 15.9099V10.4553C24 10.166 23.8851 9.88852 23.6805 9.68394C23.4759 9.47935 23.1984 9.36442 22.9091 9.36442ZM12 7.3476C12.9068 7.90396 14.8745 9.2826 16.1782 11.4385C14.3631 12.6711 12.9185 14.3755 12 16.3681C11.0823 14.3742 9.63761 12.6688 7.82182 11.4358C9.12682 9.2826 11.0932 7.90396 12 7.3476ZM2.18182 15.9099V11.6062C4.58087 11.8775 6.79626 13.022 8.40575 14.8216C10.0152 16.6212 10.9063 18.9501 10.9091 21.3644V25.6681C8.51003 25.3968 6.29465 24.2523 4.68516 22.4527C3.07567 20.6531 2.18462 18.3242 2.18182 15.9099ZM21.8182 15.9099C21.8154 18.3242 20.9243 20.6531 19.3148 22.4527C17.7054 24.2523 15.49 25.3968 13.0909 25.6681V21.3644C13.0937 18.9501 13.9848 16.6212 15.5942 14.8216C17.2037 13.022 19.4191 11.8775 21.8182 11.6062V15.9099Z" fill="white"/>
<path d="M34.2607 24.0733C34.2607 24.682 34.2679 25.2156 34.2822 25.6739C34.3037 26.1251 34.3252 26.5154 34.3467 26.8448C34.3753 27.1742 34.4076 27.4499 34.4434 27.6719C34.4863 27.8939 34.5293 28.0801 34.5723 28.2305V28.2735H31.9941V28.2305C32.0371 28.0801 32.0765 27.8939 32.1123 27.6719C32.1553 27.4499 32.1911 27.1742 32.2197 26.8448C32.2484 26.5154 32.2699 26.1251 32.2842 25.6739C32.2985 25.2156 32.3057 24.682 32.3057 24.0733V17.0801C32.3057 16.4714 32.2985 15.9415 32.2842 15.4903C32.2699 15.032 32.2484 14.6381 32.2197 14.3087C32.1911 13.9721 32.1553 13.6928 32.1123 13.4708C32.0765 13.2488 32.0371 13.0626 31.9941 12.9122V12.8692C32.1374 12.8835 32.2878 12.8979 32.4453 12.9122C32.5814 12.9265 32.7318 12.9372 32.8965 12.9444C33.0684 12.9444 33.2438 12.9444 33.4229 12.9444C33.7021 12.9444 34.0781 12.9122 34.5508 12.8477C35.0306 12.7761 35.6393 12.7403 36.377 12.7403C37.0645 12.7403 37.6982 12.8334 38.2783 13.0196C38.8656 13.2058 39.374 13.4779 39.8037 13.836C40.2334 14.1941 40.5664 14.6345 40.8027 15.1573C41.0462 15.6729 41.168 16.2602 41.168 16.919C41.168 17.4346 41.0999 17.9145 40.9639 18.3585C40.835 18.7953 40.6488 19.1928 40.4053 19.5509C40.1689 19.9089 39.8825 20.2276 39.5459 20.5069C39.2093 20.779 38.8333 21.0082 38.418 21.1944L42.1885 26.4903C42.3747 26.7553 42.5465 26.9844 42.7041 27.1778C42.8688 27.3712 43.0228 27.5359 43.166 27.6719C43.3164 27.808 43.4596 27.9226 43.5957 28.0157C43.7318 28.1016 43.8714 28.1732 44.0146 28.2305V28.2735H40.9102C40.8887 28.1374 40.8171 27.9584 40.6953 27.7364C40.5807 27.5072 40.4447 27.2816 40.2871 27.0596L36.4844 21.6993C36.1335 21.7351 35.7718 21.753 35.3994 21.753C35.027 21.753 34.6475 21.7208 34.2607 21.6563V24.0733ZM34.2607 20.8184C34.9626 20.9473 35.6035 20.9652 36.1836 20.8721C36.7708 20.779 37.2721 20.5749 37.6875 20.2598C38.11 19.9447 38.4359 19.5186 38.665 18.9815C38.9014 18.4372 39.0195 17.7784 39.0195 17.005C39.0195 16.4678 38.9587 15.9809 38.8369 15.544C38.7152 15.1072 38.5326 14.7384 38.2891 14.4376C38.0527 14.1296 37.752 13.8933 37.3867 13.7286C37.0215 13.5567 36.5954 13.4708 36.1084 13.4708C35.8005 13.4708 35.5319 13.4851 35.3027 13.5137C35.0736 13.5352 34.8802 13.5603 34.7227 13.5889C34.5365 13.6247 34.3825 13.6641 34.2607 13.7071V20.8184ZM44.8633 16.7257C45.5651 16.7257 46.2848 16.7257 47.0225 16.7257C47.7601 16.7185 48.444 16.7113 49.0742 16.7042C49.7044 16.6898 50.2451 16.6755 50.6963 16.6612C51.1546 16.6469 51.4554 16.6254 51.5986 16.5967L51.1797 17.7569C50.9863 17.7068 50.7679 17.6602 50.5244 17.6173C50.3096 17.5814 50.0482 17.5492 49.7402 17.5206C49.4395 17.4848 49.0885 17.4669 48.6875 17.4669C48.5443 17.4669 48.3796 17.474 48.1934 17.4884C48.0072 17.4955 47.8281 17.5063 47.6562 17.5206C47.4557 17.5349 47.2516 17.5492 47.0439 17.5635V21.8067C47.624 21.7995 48.1468 21.7852 48.6123 21.7637C49.0778 21.7423 49.4753 21.7136 49.8047 21.6778C50.1914 21.6492 50.5316 21.6098 50.8252 21.5596L50.5674 22.838C50.1735 22.7878 49.776 22.7449 49.375 22.7091C49.0312 22.6732 48.6517 22.6446 48.2363 22.6231C47.821 22.5945 47.4235 22.5801 47.0439 22.5801V27.4571C47.71 27.4571 48.3223 27.432 48.8809 27.3819C49.4395 27.3246 49.9264 27.2637 50.3418 27.1993C50.8288 27.1205 51.2692 27.031 51.6631 26.9307L51.416 28.338C51.3086 28.3308 51.1331 28.3201 50.8896 28.3057C50.6533 28.2986 50.4027 28.2914 50.1377 28.2842C49.8799 28.2842 49.6364 28.2807 49.4072 28.2735C49.1781 28.2735 49.0205 28.2735 48.9346 28.2735H44.8633V28.2305C44.9134 28.0801 44.9564 27.8868 44.9922 27.6505C45.0352 27.4141 45.0674 27.1241 45.0889 26.7803C45.1175 26.4294 45.139 26.0141 45.1533 25.5342C45.1676 25.0544 45.1748 24.4923 45.1748 23.8477V21.1407C45.1748 20.4962 45.1676 19.9376 45.1533 19.4649C45.139 18.9851 45.1175 18.5733 45.0889 18.2296C45.0674 17.8787 45.0352 17.585 44.9922 17.3487C44.9564 17.1124 44.9134 16.919 44.8633 16.7686V16.7257ZM56.2393 23.8477C56.2393 24.4923 56.2464 25.0544 56.2607 25.5342C56.2751 26.0141 56.293 26.4294 56.3145 26.7803C56.3431 27.1241 56.3753 27.4141 56.4111 27.6505C56.4469 27.8868 56.4899 28.0801 56.54 28.2305V28.2735H54.0586V28.2305C54.1087 28.0801 54.1517 27.8868 54.1875 27.6505C54.2305 27.4141 54.2627 27.1241 54.2842 26.7803C54.3128 26.4294 54.3343 26.0141 54.3486 25.5342C54.363 25.0544 54.3701 24.4923 54.3701 23.8477V21.1407C54.3701 20.4962 54.363 19.9376 54.3486 19.4649C54.3343 18.9851 54.3128 18.5733 54.2842 18.2296C54.2627 17.8787 54.2305 17.585 54.1875 17.3487C54.1517 17.1124 54.1087 16.919 54.0586 16.7686V16.7257C54.5241 16.7257 55.0039 16.7257 55.498 16.7257C55.9993 16.7257 56.4899 16.7257 56.9697 16.7257C57.4567 16.7185 57.9186 16.7113 58.3555 16.7042C58.7995 16.697 59.1969 16.6898 59.5479 16.6827C59.9059 16.6684 60.2103 16.6576 60.4609 16.6505C60.7116 16.6361 60.887 16.6182 60.9873 16.5967L60.5469 17.7569C60.3607 17.7068 60.1458 17.6602 59.9023 17.6173C59.6947 17.5814 59.4333 17.5492 59.1182 17.5206C58.8102 17.4848 58.4593 17.4669 58.0654 17.4669C57.9222 17.4669 57.7467 17.474 57.5391 17.4884C57.3385 17.4955 57.1416 17.5063 56.9482 17.5206C56.7191 17.5349 56.4827 17.5492 56.2393 17.5635V21.4737C56.8193 21.4665 57.3493 21.4522 57.8291 21.4307C58.3089 21.4021 58.7243 21.3734 59.0752 21.3448C59.4834 21.3162 59.8486 21.2803 60.1709 21.2374L59.9346 22.5264C59.512 22.4763 59.0859 22.4298 58.6562 22.3868C58.291 22.351 57.89 22.3188 57.4531 22.2901C57.0234 22.2615 56.6188 22.2471 56.2393 22.2471V23.8477ZM62.126 22.462C62.126 21.6169 62.2835 20.8328 62.5986 20.1094C62.9209 19.3861 63.3577 18.7595 63.9092 18.2296C64.4606 17.6925 65.1123 17.2735 65.8643 16.9727C66.6162 16.6719 67.4219 16.5216 68.2812 16.5216C69.1263 16.5216 69.9212 16.6648 70.666 16.9512C71.418 17.2305 72.0697 17.6316 72.6211 18.1544C73.1797 18.6772 73.6201 19.3109 73.9424 20.0557C74.2646 20.8005 74.4258 21.6348 74.4258 22.5587C74.4258 23.3249 74.2897 24.0662 74.0176 24.7823C73.7454 25.4913 73.348 26.1215 72.8252 26.6729C72.3024 27.2172 71.6579 27.654 70.8916 27.9835C70.1253 28.3057 69.248 28.4669 68.2598 28.4669C67.4219 28.4669 66.6305 28.3272 65.8857 28.0479C65.141 27.7686 64.4893 27.3712 63.9307 26.8555C63.3721 26.3328 62.9316 25.7025 62.6094 24.9649C62.2871 24.2201 62.126 23.3858 62.126 22.462ZM68.5283 27.7042C69.0726 27.7042 69.5739 27.5967 70.0322 27.3819C70.4906 27.1671 70.8844 26.8591 71.2139 26.4581C71.5505 26.057 71.8083 25.5701 71.9873 24.9971C72.1735 24.4171 72.2666 23.7654 72.2666 23.0421C72.2666 22.2185 72.1771 21.4558 71.998 20.754C71.8262 20.0522 71.5612 19.447 71.2031 18.9385C70.8522 18.4229 70.4118 18.0219 69.8818 17.7354C69.3519 17.4418 68.7324 17.295 68.0234 17.295C67.4792 17.295 66.9779 17.3988 66.5195 17.6065C66.0612 17.8142 65.6637 18.115 65.3271 18.5089C64.9977 18.9027 64.7399 19.3861 64.5537 19.9591C64.3675 20.532 64.2744 21.1837 64.2744 21.9141C64.2744 22.7305 64.3639 23.4932 64.543 24.2022C64.7292 24.904 64.9977 25.5163 65.3486 26.0391C65.7067 26.5548 66.1507 26.963 66.6807 27.2637C67.2106 27.5574 67.8265 27.7042 68.5283 27.7042ZM78.7979 22.6661C78.9411 22.6876 79.0843 22.7055 79.2275 22.7198C79.3779 22.727 79.5212 22.7305 79.6572 22.7305C80.5524 22.7305 81.2292 22.4906 81.6875 22.0108C82.153 21.531 82.3857 20.8113 82.3857 19.8516C82.3857 19.0639 82.1995 18.4408 81.8271 17.9825C81.4619 17.5242 80.9212 17.295 80.2051 17.295C79.9759 17.295 79.7718 17.3057 79.5928 17.3272C79.4209 17.3415 79.2741 17.3594 79.1523 17.3809C79.0163 17.4096 78.8981 17.4382 78.7979 17.4669V22.6661ZM80.4414 23.3643C80.2982 23.3858 80.1549 23.4001 80.0117 23.4073C79.8757 23.4073 79.736 23.4073 79.5928 23.4073C79.4782 23.4073 79.3529 23.4037 79.2168 23.3966C79.0807 23.3894 78.9411 23.3787 78.7979 23.3643V23.8907C78.7979 24.5281 78.805 25.0867 78.8193 25.5665C78.8337 26.0391 78.8516 26.4473 78.873 26.7911C78.9017 27.1348 78.9339 27.4249 78.9697 27.6612C79.0055 27.8904 79.0485 28.0801 79.0986 28.2305V28.2735H76.6172V28.2305C76.6673 28.0801 76.7103 27.8868 76.7461 27.6505C76.7891 27.4141 76.8213 27.1241 76.8428 26.7803C76.8714 26.4294 76.8929 26.0141 76.9072 25.5342C76.9215 25.0544 76.9287 24.4923 76.9287 23.8477V21.1407C76.9287 20.4962 76.9215 19.9376 76.9072 19.4649C76.8929 18.9851 76.8714 18.5733 76.8428 18.2296C76.8213 17.8787 76.7891 17.585 76.7461 17.3487C76.7103 17.1124 76.6673 16.919 76.6172 16.7686V16.7257C76.7318 16.7328 76.8535 16.74 76.9824 16.7471C77.0898 16.7543 77.208 16.7615 77.3369 16.7686C77.473 16.7686 77.609 16.7686 77.7451 16.7686C77.9743 16.7686 78.3145 16.7471 78.7656 16.7042C79.2168 16.6612 79.7467 16.6397 80.3555 16.6397C80.9714 16.6397 81.5299 16.7149 82.0312 16.8653C82.5397 17.0157 82.973 17.2305 83.3311 17.5098C83.6963 17.7891 83.9756 18.1293 84.1689 18.5303C84.3695 18.9314 84.4697 19.379 84.4697 19.8731C84.4697 20.2598 84.416 20.6143 84.3086 20.9366C84.2012 21.2517 84.0508 21.5382 83.8574 21.796C83.6641 22.0466 83.4349 22.2686 83.1699 22.462C82.9049 22.6553 82.6113 22.8236 82.2891 22.9669L84.5342 26.1358C84.7275 26.3936 84.9209 26.6407 85.1143 26.877C85.3148 27.1134 85.5046 27.3246 85.6836 27.5108C85.8626 27.697 86.0309 27.8546 86.1885 27.9835C86.346 28.1052 86.4785 28.1876 86.5859 28.2305V28.2735H83.7715C83.7715 28.2091 83.7249 28.0981 83.6318 27.9405C83.5459 27.7758 83.4421 27.6075 83.3203 27.4356C83.2057 27.2566 83.0876 27.0847 82.9658 26.92C82.8512 26.7553 82.7653 26.6335 82.708 26.5548L80.4414 23.3643ZM98.3809 28.2735V28.2305C98.3952 28.1947 98.4059 28.141 98.4131 28.0694C98.4202 27.9978 98.4238 27.9333 98.4238 27.876C98.4238 27.654 98.3916 27.4106 98.3271 27.1456C98.2699 26.8734 98.1553 26.5369 97.9834 26.1358L96.6836 23.2139C96.2826 23.1996 95.749 23.1925 95.083 23.1925C94.417 23.1925 93.6973 23.1925 92.9238 23.1925C92.3581 23.1925 91.8102 23.1925 91.2803 23.1925C90.7575 23.1925 90.2848 23.1996 89.8623 23.2139L88.627 26.0499C88.5195 26.3148 88.4049 26.6049 88.2832 26.92C88.1615 27.2351 88.1006 27.5538 88.1006 27.876C88.1006 27.9691 88.1077 28.0479 88.1221 28.1124C88.1364 28.1697 88.1507 28.2091 88.165 28.2305V28.2735H85.9736V28.2305C86.1025 28.0945 86.2637 27.8546 86.457 27.5108C86.6504 27.1599 86.8617 26.7231 87.0908 26.2003L93.2461 12.5469H94.1055L99.9385 25.6739C100.075 25.9818 100.214 26.2826 100.357 26.5762C100.508 26.8627 100.647 27.1205 100.776 27.3497C100.905 27.5788 101.02 27.7722 101.12 27.9298C101.22 28.0873 101.288 28.1876 101.324 28.2305V28.2735H98.3809ZM91.4199 22.2686C91.8353 22.2686 92.2614 22.2686 92.6982 22.2686C93.1351 22.2615 93.5612 22.2579 93.9766 22.2579C94.3991 22.2507 94.8037 22.2471 95.1904 22.2471C95.5771 22.24 95.9281 22.2328 96.2432 22.2257L93.2246 15.4044L90.2598 22.2686H91.4199ZM104.708 23.0421C104.851 23.0635 104.991 23.085 105.127 23.1065C105.27 23.1208 105.41 23.128 105.546 23.128C105.954 23.128 106.326 23.0671 106.663 22.9454C107.007 22.8165 107.297 22.6267 107.533 22.376C107.777 22.1254 107.963 21.8067 108.092 21.42C108.228 21.0333 108.296 20.5821 108.296 20.0665C108.296 19.6511 108.249 19.2751 108.156 18.9385C108.063 18.602 107.924 18.3155 107.737 18.0792C107.558 17.8357 107.333 17.6495 107.061 17.5206C106.788 17.3845 106.473 17.3165 106.115 17.3165C105.886 17.3165 105.682 17.3272 105.503 17.3487C105.331 17.363 105.184 17.3809 105.062 17.4024C104.926 17.4311 104.808 17.4597 104.708 17.4884V23.0421ZM104.708 23.7833C104.708 24.4278 104.715 24.9936 104.729 25.4805C104.744 25.9675 104.762 26.39 104.783 26.7481C104.812 27.099 104.844 27.3962 104.88 27.6397C104.916 27.8832 104.959 28.0801 105.009 28.2305V28.2735H102.527V28.2305C102.577 28.0801 102.62 27.8868 102.656 27.6505C102.699 27.4141 102.731 27.1241 102.753 26.7803C102.782 26.4294 102.803 26.0141 102.817 25.5342C102.832 25.0544 102.839 24.4923 102.839 23.8477V21.1407C102.839 20.4962 102.832 19.9376 102.817 19.4649C102.803 18.9851 102.782 18.5733 102.753 18.2296C102.731 17.8787 102.699 17.585 102.656 17.3487C102.62 17.1124 102.577 16.919 102.527 16.7686V16.7257C102.685 16.7328 102.842 16.74 103 16.7471C103.136 16.7543 103.279 16.7615 103.43 16.7686C103.587 16.7686 103.734 16.7686 103.87 16.7686C104.099 16.7686 104.436 16.7471 104.88 16.7042C105.331 16.6612 105.861 16.6397 106.47 16.6397C107.028 16.6397 107.548 16.7149 108.027 16.8653C108.507 17.0085 108.919 17.2234 109.263 17.5098C109.614 17.7963 109.886 18.1472 110.079 18.5626C110.28 18.9708 110.38 19.4434 110.38 19.9805C110.38 20.6107 110.258 21.1693 110.015 21.6563C109.771 22.1361 109.438 22.5408 109.016 22.8702C108.6 23.1925 108.11 23.4359 107.544 23.6007C106.978 23.7654 106.377 23.8477 105.739 23.8477C105.403 23.8477 105.059 23.8262 104.708 23.7833ZM114.419 23.0421C114.562 23.0635 114.702 23.085 114.838 23.1065C114.981 23.1208 115.121 23.128 115.257 23.128C115.665 23.128 116.037 23.0671 116.374 22.9454C116.718 22.8165 117.008 22.6267 117.244 22.376C117.488 22.1254 117.674 21.8067 117.803 21.42C117.939 21.0333 118.007 20.5821 118.007 20.0665C118.007 19.6511 117.96 19.2751 117.867 18.9385C117.774 18.602 117.634 18.3155 117.448 18.0792C117.269 17.8357 117.044 17.6495 116.771 17.5206C116.499 17.3845 116.184 17.3165 115.826 17.3165C115.597 17.3165 115.393 17.3272 115.214 17.3487C115.042 17.363 114.895 17.3809 114.773 17.4024C114.637 17.4311 114.519 17.4597 114.419 17.4884V23.0421ZM114.419 23.7833C114.419 24.4278 114.426 24.9936 114.44 25.4805C114.455 25.9675 114.473 26.39 114.494 26.7481C114.523 27.099 114.555 27.3962 114.591 27.6397C114.627 27.8832 114.67 28.0801 114.72 28.2305V28.2735H112.238V28.2305C112.288 28.0801 112.331 27.8868 112.367 27.6505C112.41 27.4141 112.442 27.1241 112.464 26.7803C112.493 26.4294 112.514 26.0141 112.528 25.5342C112.543 25.0544 112.55 24.4923 112.55 23.8477V21.1407C112.55 20.4962 112.543 19.9376 112.528 19.4649C112.514 18.9851 112.493 18.5733 112.464 18.2296C112.442 17.8787 112.41 17.585 112.367 17.3487C112.331 17.1124 112.288 16.919 112.238 16.7686V16.7257C112.396 16.7328 112.553 16.74 112.711 16.7471C112.847 16.7543 112.99 16.7615 113.141 16.7686C113.298 16.7686 113.445 16.7686 113.581 16.7686C113.81 16.7686 114.147 16.7471 114.591 16.7042C115.042 16.6612 115.572 16.6397 116.181 16.6397C116.739 16.6397 117.258 16.7149 117.738 16.8653C118.218 17.0085 118.63 17.2234 118.974 17.5098C119.325 17.7963 119.597 18.1472 119.79 18.5626C119.991 18.9708 120.091 19.4434 120.091 19.9805C120.091 20.6107 119.969 21.1693 119.726 21.6563C119.482 22.1361 119.149 22.5408 118.727 22.8702C118.311 23.1925 117.821 23.4359 117.255 23.6007C116.689 23.7654 116.088 23.8477 115.45 23.8477C115.114 23.8477 114.77 23.8262 114.419 23.7833Z" fill="white"/>
</svg>
