<svg width="199" height="199" viewBox="0 0 199 199" fill="none" xmlns="http://www.w3.org/2000/svg">
<g clip-path="url(#clip0_82_3556)">
<path d="M146.762 80.4292C148.273 78.8654 149.109 76.7709 149.09 74.5968C149.071 72.4228 148.199 70.3431 146.661 68.8058C145.124 67.2684 143.044 66.3964 140.87 66.3775C138.696 66.3586 136.602 67.1944 135.038 68.7048L91.0922 112.651L63.7297 85.2881C62.1659 83.7777 60.0714 82.942 57.8974 82.9608C55.7233 82.9797 53.6437 83.8518 52.1063 85.3891C50.569 86.9264 49.6969 89.0061 49.678 91.1802C49.6592 93.3542 50.4949 95.4487 52.0053 97.0125L85.172 130.179C86.7269 131.734 88.8355 132.607 91.0342 132.607C93.2328 132.607 95.3415 131.734 96.8964 130.179L146.646 80.4292H146.762Z" fill="#0A6D06"/>
<path fill-rule="evenodd" clip-rule="evenodd" d="M199 99.5C199 154.391 154.391 199 99.5 199C44.6092 199 0 154.391 0 99.5C0 44.6092 44.6092 0 99.5 0C154.391 0 199 44.6092 199 99.5ZM182.417 99.5C182.417 145.27 145.27 182.417 99.5 182.417C53.73 182.417 16.5833 145.27 16.5833 99.5C16.5833 53.73 53.73 16.5833 99.5 16.5833C145.27 16.5833 182.417 53.73 182.417 99.5Z" fill="#0A6D06"/>
</g>
<defs>
<clipPath id="clip0_82_3556">
<rect width="199" height="199" fill="white"/>
</clipPath>
</defs>
</svg>
