<svg width="144" height="178" viewBox="0 0 144 178" fill="none" xmlns="http://www.w3.org/2000/svg">
<path d="M94.1871 36.9329C87.2065 40.8003 81.389 46.4665 77.3389 53.3427C73.2889 60.2189 71.154 68.0542 71.1562 76.0345C71.1585 68.0542 69.0236 60.2189 64.9736 53.3427C60.9235 46.4665 55.106 40.8003 48.1254 36.9329C55.5156 21.2923 71.1562 13.472 71.1562 13.472C71.1562 13.472 86.7969 21.2923 94.1871 36.9329Z" fill="#4A1212"/>
<path d="M115.844 26.8782C109.043 26.8724 102.315 28.286 96.0919 31.0286C87.6571 16.857 73.7928 9.80199 73.156 9.47242C72.5352 9.16175 71.8505 9 71.1562 9C70.462 9 69.7773 9.16175 69.1565 9.47242C68.5197 9.7964 54.633 16.857 46.2206 31.0286C39.9971 28.286 33.2698 26.8724 26.4688 26.8782C25.2836 26.8782 24.1469 27.349 23.3089 28.1871C22.4708 29.0251 22 30.1618 22 31.347V53.6907C22.0147 65.9496 26.6038 77.7617 34.869 86.8152C43.1343 95.8687 54.4807 101.512 66.6875 102.64V122.431L46.3435 112.254C45.8183 111.991 45.2465 111.834 44.6607 111.793C44.075 111.751 43.4868 111.825 42.9297 112.011C42.3726 112.197 41.8576 112.49 41.4139 112.875C40.9703 113.26 40.6068 113.728 40.3442 114.253C40.0816 114.779 39.925 115.35 39.8834 115.936C39.8418 116.522 39.9159 117.11 40.1016 117.667C40.2873 118.224 40.5809 118.739 40.9657 119.183C41.3504 119.627 41.8188 119.99 42.344 120.253L69.1565 133.659C69.7773 133.97 70.462 134.131 71.1562 134.131C71.8505 134.131 72.5352 133.97 73.156 133.659L99.9685 120.253C101.029 119.722 101.836 118.792 102.211 117.667C102.586 116.542 102.499 115.314 101.968 114.253C101.438 113.193 100.508 112.386 99.3828 112.011C98.2577 111.636 97.0297 111.723 95.969 112.254L75.625 122.431V102.64C87.8318 101.512 99.1782 95.8687 107.443 86.8152C115.709 77.7617 120.298 65.9496 120.312 53.6907V31.347C120.312 30.1618 119.842 29.0251 119.004 28.1871C118.166 27.349 117.029 26.8782 115.844 26.8782ZM71.1562 18.6166C74.8709 20.8957 82.9314 26.543 88.2716 35.3744C80.8362 40.4236 74.9187 47.4052 71.1562 55.5676C67.3969 47.4002 61.479 40.4143 54.0409 35.3632C59.3867 26.543 67.4416 20.8957 71.1562 18.6166ZM30.9375 53.6907V36.0615C40.7649 37.1726 49.8399 41.8608 56.4329 49.2326C63.026 56.6044 66.676 66.1445 66.6875 76.0345V93.6637C56.8601 92.5526 47.7851 87.8644 41.1921 80.4925C34.599 73.1207 30.949 63.5807 30.9375 53.6907ZM111.375 53.6907C111.364 63.5807 107.713 73.1207 101.12 80.4925C94.5274 87.8644 85.4524 92.5526 75.625 93.6637V76.0345C75.6365 66.1445 79.2865 56.6044 85.8796 49.2326C92.4726 41.8608 101.548 37.1726 111.375 36.0615V53.6907Z" fill="white"/>
<path d="M6.39209 170.318C6.39209 171.286 6.40348 172.135 6.42627 172.864C6.46045 173.582 6.49463 174.203 6.52881 174.727C6.57438 175.251 6.62565 175.69 6.68262 176.043C6.75098 176.396 6.81934 176.692 6.8877 176.932V177H2.78613V176.932C2.85449 176.692 2.91715 176.396 2.97412 176.043C3.04248 175.69 3.09945 175.251 3.14502 174.727C3.19059 174.203 3.22477 173.582 3.24756 172.864C3.27035 172.135 3.28174 171.286 3.28174 170.318V159.192C3.28174 158.224 3.27035 157.381 3.24756 156.663C3.22477 155.934 3.19059 155.307 3.14502 154.783C3.09945 154.248 3.04248 153.803 2.97412 153.45C2.91715 153.097 2.85449 152.801 2.78613 152.562V152.493C3.014 152.516 3.25326 152.539 3.50391 152.562C3.72038 152.584 3.95964 152.601 4.22168 152.613C4.49512 152.613 4.77425 152.613 5.05908 152.613C5.50342 152.613 6.10156 152.562 6.85352 152.459C7.61686 152.345 8.58529 152.288 9.75879 152.288C10.8525 152.288 11.8608 152.436 12.7837 152.732C13.7179 153.029 14.5269 153.462 15.2104 154.031C15.894 154.601 16.4238 155.302 16.7998 156.133C17.1872 156.954 17.3809 157.888 17.3809 158.936C17.3809 159.756 17.2726 160.52 17.0562 161.226C16.8511 161.921 16.5549 162.553 16.1675 163.123C15.7915 163.693 15.3358 164.2 14.8003 164.644C14.2648 165.077 13.6667 165.442 13.0059 165.738L19.0044 174.163C19.3006 174.585 19.5741 174.949 19.8247 175.257C20.0868 175.564 20.3317 175.826 20.5596 176.043C20.7988 176.259 21.0267 176.442 21.2432 176.59C21.4596 176.727 21.6818 176.84 21.9097 176.932V177H16.9707C16.9365 176.784 16.8226 176.499 16.6289 176.146C16.4466 175.781 16.2301 175.422 15.9795 175.069L9.92969 166.541C9.37142 166.598 8.79606 166.626 8.20361 166.626C7.61117 166.626 7.00732 166.575 6.39209 166.473V170.318ZM6.39209 165.14C7.50863 165.345 8.52832 165.373 9.45117 165.225C10.3854 165.077 11.1829 164.752 11.8438 164.251C12.516 163.75 13.0343 163.072 13.3989 162.217C13.7749 161.351 13.9629 160.303 13.9629 159.073C13.9629 158.218 13.866 157.444 13.6724 156.749C13.4787 156.054 13.1882 155.467 12.8008 154.988C12.4248 154.498 11.9463 154.122 11.3652 153.86C10.7842 153.587 10.1063 153.45 9.33154 153.45C8.84163 153.45 8.41439 153.473 8.0498 153.519C7.68522 153.553 7.3776 153.593 7.12695 153.638C6.83073 153.695 6.58577 153.758 6.39209 153.826V165.14ZM23.2598 158.628C24.3763 158.628 25.5213 158.628 26.6948 158.628C27.8683 158.617 28.9564 158.606 29.959 158.594C30.9616 158.571 31.8218 158.549 32.5396 158.526C33.2687 158.503 33.7472 158.469 33.9751 158.423L33.3086 160.269C33.001 160.189 32.6535 160.115 32.2661 160.047C31.9243 159.99 31.5085 159.939 31.0186 159.893C30.54 159.836 29.9818 159.808 29.3438 159.808C29.1159 159.808 28.8538 159.819 28.5576 159.842C28.2614 159.853 27.9766 159.87 27.7031 159.893C27.3841 159.916 27.0594 159.939 26.729 159.961V166.712C27.6519 166.701 28.4836 166.678 29.2241 166.644C29.9647 166.609 30.597 166.564 31.1211 166.507C31.7363 166.461 32.2775 166.399 32.7446 166.319L32.3345 168.353C31.7078 168.273 31.0755 168.204 30.4375 168.147C29.8906 168.09 29.2868 168.045 28.626 168.011C27.9652 167.965 27.3328 167.942 26.729 167.942V175.701C27.7886 175.701 28.7627 175.661 29.6514 175.582C30.54 175.49 31.3148 175.394 31.9756 175.291C32.7503 175.166 33.451 175.023 34.0776 174.864L33.6846 177.103C33.5137 177.091 33.2345 177.074 32.8472 177.051C32.4712 177.04 32.0724 177.028 31.6509 177.017C31.2407 177.017 30.8534 177.011 30.4888 177C30.1242 177 29.8735 177 29.7368 177H23.2598V176.932C23.3395 176.692 23.4079 176.385 23.4648 176.009C23.5332 175.633 23.5845 175.171 23.6187 174.625C23.6642 174.066 23.6984 173.405 23.7212 172.642C23.744 171.879 23.7554 170.984 23.7554 169.959V165.652C23.7554 164.627 23.744 163.738 23.7212 162.986C23.6984 162.223 23.6642 161.568 23.6187 161.021C23.5845 160.463 23.5332 159.996 23.4648 159.62C23.4079 159.244 23.3395 158.936 23.2598 158.697V158.628ZM41.3579 169.959C41.3579 170.984 41.3693 171.879 41.3921 172.642C41.4149 173.405 41.4434 174.066 41.4775 174.625C41.5231 175.171 41.5744 175.633 41.6313 176.009C41.6883 176.385 41.7567 176.692 41.8364 176.932V177H37.8887V176.932C37.9684 176.692 38.0368 176.385 38.0938 176.009C38.1621 175.633 38.2134 175.171 38.2476 174.625C38.2931 174.066 38.3273 173.405 38.3501 172.642C38.3729 171.879 38.3843 170.984 38.3843 169.959V165.652C38.3843 164.627 38.3729 163.738 38.3501 162.986C38.3273 162.223 38.2931 161.568 38.2476 161.021C38.2134 160.463 38.1621 159.996 38.0938 159.62C38.0368 159.244 37.9684 158.936 37.8887 158.697V158.628C38.6292 158.628 39.3926 158.628 40.1787 158.628C40.9762 158.628 41.7567 158.628 42.52 158.628C43.2948 158.617 44.0296 158.606 44.7246 158.594C45.431 158.583 46.0633 158.571 46.6216 158.56C47.1912 158.537 47.6755 158.52 48.0742 158.509C48.473 158.486 48.7521 158.458 48.9116 158.423L48.2109 160.269C47.9147 160.189 47.5729 160.115 47.1855 160.047C46.8551 159.99 46.4393 159.939 45.938 159.893C45.4481 159.836 44.8898 159.808 44.2632 159.808C44.0353 159.808 43.7562 159.819 43.4258 159.842C43.1068 159.853 42.7935 159.87 42.4858 159.893C42.1213 159.916 41.7453 159.939 41.3579 159.961V166.182C42.2808 166.171 43.1239 166.148 43.8872 166.114C44.6506 166.068 45.3114 166.023 45.8696 165.977C46.519 165.931 47.1001 165.875 47.6128 165.806L47.2368 167.857C46.5646 167.777 45.8867 167.703 45.2031 167.635C44.6221 167.578 43.984 167.527 43.2891 167.481C42.6055 167.435 41.9618 167.413 41.3579 167.413V169.959ZM50.7231 167.754C50.7231 166.41 50.9738 165.162 51.4751 164.012C51.9878 162.861 52.6828 161.864 53.5601 161.021C54.4373 160.167 55.4741 159.5 56.6704 159.021C57.8667 158.543 59.1484 158.304 60.5156 158.304C61.86 158.304 63.1247 158.532 64.3096 158.987C65.5059 159.432 66.5426 160.07 67.4199 160.901C68.3086 161.733 69.0093 162.741 69.522 163.926C70.0347 165.111 70.291 166.438 70.291 167.908C70.291 169.127 70.0745 170.306 69.6416 171.446C69.2087 172.574 68.5763 173.576 67.7446 174.454C66.9129 175.319 65.8875 176.014 64.6685 176.539C63.4494 177.051 62.0537 177.308 60.4814 177.308C59.1484 177.308 57.8895 177.085 56.7046 176.641C55.5197 176.197 54.4829 175.564 53.5942 174.744C52.7056 173.912 52.0049 172.91 51.4922 171.736C50.9795 170.551 50.7231 169.224 50.7231 167.754ZM60.9087 176.094C61.7746 176.094 62.5721 175.923 63.3013 175.582C64.0304 175.24 64.6571 174.75 65.1812 174.112C65.7166 173.474 66.1268 172.699 66.4116 171.788C66.7078 170.865 66.856 169.828 66.856 168.677C66.856 167.367 66.7135 166.154 66.4287 165.037C66.1553 163.921 65.7337 162.958 65.1641 162.149C64.6058 161.329 63.9051 160.691 63.062 160.235C62.2189 159.768 61.2334 159.534 60.1055 159.534C59.2396 159.534 58.4421 159.699 57.7129 160.03C56.9837 160.36 56.3514 160.839 55.8159 161.465C55.2918 162.092 54.8817 162.861 54.5854 163.772C54.2892 164.684 54.1411 165.721 54.1411 166.883C54.1411 168.182 54.2835 169.395 54.5684 170.523C54.8646 171.639 55.2918 172.614 55.8501 173.445C56.4198 174.266 57.1261 174.915 57.9692 175.394C58.8123 175.861 59.7922 176.094 60.9087 176.094ZM77.2466 168.079C77.4744 168.113 77.7023 168.142 77.9302 168.165C78.1694 168.176 78.3973 168.182 78.6138 168.182C80.0379 168.182 81.1146 167.8 81.8438 167.037C82.5843 166.273 82.9546 165.128 82.9546 163.602C82.9546 162.348 82.6584 161.357 82.0659 160.628C81.4849 159.899 80.6247 159.534 79.4854 159.534C79.1208 159.534 78.7961 159.551 78.5112 159.585C78.2378 159.608 78.0042 159.637 77.8105 159.671C77.5941 159.716 77.4061 159.762 77.2466 159.808V168.079ZM79.8613 169.19C79.6335 169.224 79.4056 169.247 79.1777 169.258C78.9613 169.258 78.7391 169.258 78.5112 169.258C78.3289 169.258 78.1296 169.253 77.9131 169.241C77.6966 169.23 77.4744 169.213 77.2466 169.19V170.027C77.2466 171.041 77.258 171.93 77.2808 172.693C77.3035 173.445 77.332 174.095 77.3662 174.642C77.4118 175.188 77.4631 175.65 77.52 176.026C77.577 176.39 77.6453 176.692 77.7251 176.932V177H73.7773V176.932C73.8571 176.692 73.9255 176.385 73.9824 176.009C74.0508 175.633 74.1021 175.171 74.1362 174.625C74.1818 174.066 74.216 173.405 74.2388 172.642C74.2616 171.879 74.2729 170.984 74.2729 169.959V165.652C74.2729 164.627 74.2616 163.738 74.2388 162.986C74.216 162.223 74.1818 161.568 74.1362 161.021C74.1021 160.463 74.0508 159.996 73.9824 159.62C73.9255 159.244 73.8571 158.936 73.7773 158.697V158.628C73.9596 158.64 74.1533 158.651 74.3584 158.663C74.5293 158.674 74.7173 158.685 74.9224 158.697C75.1388 158.697 75.3553 158.697 75.5718 158.697C75.9364 158.697 76.4775 158.663 77.1953 158.594C77.9131 158.526 78.7562 158.492 79.7246 158.492C80.7044 158.492 81.5931 158.611 82.3906 158.851C83.1995 159.09 83.8888 159.432 84.4585 159.876C85.0396 160.32 85.4839 160.861 85.7915 161.5C86.1105 162.138 86.27 162.85 86.27 163.636C86.27 164.251 86.1846 164.815 86.0137 165.328C85.8428 165.829 85.6035 166.285 85.2959 166.695C84.9883 167.094 84.6237 167.447 84.2021 167.754C83.7806 168.062 83.3135 168.33 82.8008 168.558L86.3726 173.599C86.6802 174.009 86.9878 174.402 87.2954 174.778C87.6144 175.154 87.9163 175.49 88.2012 175.787C88.486 176.083 88.7537 176.333 89.0044 176.539C89.255 176.732 89.4658 176.863 89.6367 176.932V177H85.1592C85.1592 176.897 85.0851 176.721 84.937 176.47C84.8003 176.208 84.6351 175.94 84.4414 175.667C84.2591 175.382 84.0711 175.109 83.8774 174.847C83.6951 174.585 83.5584 174.391 83.4673 174.266L79.8613 169.19ZM108.401 177V176.932C108.424 176.875 108.441 176.789 108.453 176.675C108.464 176.561 108.47 176.459 108.47 176.368C108.47 176.014 108.418 175.627 108.316 175.206C108.225 174.773 108.042 174.237 107.769 173.599L105.701 168.951C105.063 168.928 104.214 168.917 103.155 168.917C102.095 168.917 100.95 168.917 99.7197 168.917C98.8197 168.917 97.9481 168.917 97.105 168.917C96.2733 168.917 95.5213 168.928 94.8491 168.951L92.8838 173.462C92.7129 173.884 92.5306 174.345 92.3369 174.847C92.1432 175.348 92.0464 175.855 92.0464 176.368C92.0464 176.516 92.0578 176.641 92.0806 176.744C92.1034 176.835 92.1261 176.897 92.1489 176.932V177H88.6626V176.932C88.8677 176.715 89.124 176.333 89.4316 175.787C89.7393 175.228 90.0754 174.533 90.4399 173.702L100.232 151.98H101.6L110.879 172.864C111.096 173.354 111.318 173.833 111.546 174.3C111.785 174.756 112.007 175.166 112.212 175.53C112.417 175.895 112.6 176.202 112.759 176.453C112.919 176.704 113.027 176.863 113.084 176.932V177H108.401ZM97.3271 167.447C97.988 167.447 98.6659 167.447 99.3608 167.447C100.056 167.435 100.734 167.43 101.395 167.43C102.067 167.418 102.71 167.413 103.326 167.413C103.941 167.401 104.499 167.39 105 167.378L100.198 156.526L95.4814 167.447H97.3271ZM118.467 168.677C118.695 168.711 118.917 168.746 119.134 168.78C119.362 168.803 119.584 168.814 119.8 168.814C120.45 168.814 121.042 168.717 121.578 168.523C122.125 168.318 122.586 168.016 122.962 167.618C123.349 167.219 123.646 166.712 123.851 166.097C124.067 165.481 124.175 164.764 124.175 163.943C124.175 163.283 124.101 162.684 123.953 162.149C123.805 161.613 123.583 161.158 123.287 160.782C123.002 160.394 122.643 160.098 122.21 159.893C121.777 159.677 121.276 159.568 120.706 159.568C120.341 159.568 120.017 159.585 119.732 159.62C119.458 159.642 119.225 159.671 119.031 159.705C118.815 159.751 118.627 159.796 118.467 159.842V168.677ZM118.467 169.856C118.467 170.882 118.479 171.782 118.501 172.557C118.524 173.331 118.553 174.004 118.587 174.573C118.632 175.132 118.684 175.604 118.741 175.992C118.798 176.379 118.866 176.692 118.946 176.932V177H114.998V176.932C115.078 176.692 115.146 176.385 115.203 176.009C115.271 175.633 115.323 175.171 115.357 174.625C115.403 174.066 115.437 173.405 115.459 172.642C115.482 171.879 115.494 170.984 115.494 169.959V165.652C115.494 164.627 115.482 163.738 115.459 162.986C115.437 162.223 115.403 161.568 115.357 161.021C115.323 160.463 115.271 159.996 115.203 159.62C115.146 159.244 115.078 158.936 114.998 158.697V158.628C115.249 158.64 115.499 158.651 115.75 158.663C115.966 158.674 116.194 158.685 116.434 158.697C116.684 158.697 116.918 158.697 117.134 158.697C117.499 158.697 118.034 158.663 118.741 158.594C119.458 158.526 120.302 158.492 121.27 158.492C122.159 158.492 122.985 158.611 123.748 158.851C124.511 159.078 125.167 159.42 125.713 159.876C126.272 160.332 126.705 160.89 127.012 161.551C127.331 162.2 127.491 162.952 127.491 163.807C127.491 164.809 127.297 165.698 126.91 166.473C126.522 167.236 125.993 167.88 125.32 168.404C124.66 168.917 123.879 169.304 122.979 169.566C122.079 169.828 121.122 169.959 120.108 169.959C119.572 169.959 119.026 169.925 118.467 169.856ZM133.917 168.677C134.144 168.711 134.367 168.746 134.583 168.78C134.811 168.803 135.033 168.814 135.25 168.814C135.899 168.814 136.491 168.717 137.027 168.523C137.574 168.318 138.035 168.016 138.411 167.618C138.799 167.219 139.095 166.712 139.3 166.097C139.516 165.481 139.625 164.764 139.625 163.943C139.625 163.283 139.55 162.684 139.402 162.149C139.254 161.613 139.032 161.158 138.736 160.782C138.451 160.394 138.092 160.098 137.659 159.893C137.226 159.677 136.725 159.568 136.155 159.568C135.791 159.568 135.466 159.585 135.181 159.62C134.908 159.642 134.674 159.671 134.48 159.705C134.264 159.751 134.076 159.796 133.917 159.842V168.677ZM133.917 169.856C133.917 170.882 133.928 171.782 133.951 172.557C133.973 173.331 134.002 174.004 134.036 174.573C134.082 175.132 134.133 175.604 134.19 175.992C134.247 176.379 134.315 176.692 134.395 176.932V177H130.447V176.932C130.527 176.692 130.595 176.385 130.652 176.009C130.721 175.633 130.772 175.171 130.806 174.625C130.852 174.066 130.886 173.405 130.909 172.642C130.931 171.879 130.943 170.984 130.943 169.959V165.652C130.943 164.627 130.931 163.738 130.909 162.986C130.886 162.223 130.852 161.568 130.806 161.021C130.772 160.463 130.721 159.996 130.652 159.62C130.595 159.244 130.527 158.936 130.447 158.697V158.628C130.698 158.64 130.949 158.651 131.199 158.663C131.416 158.674 131.644 158.685 131.883 158.697C132.133 158.697 132.367 158.697 132.583 158.697C132.948 158.697 133.484 158.663 134.19 158.594C134.908 158.526 135.751 158.492 136.719 158.492C137.608 158.492 138.434 158.611 139.197 158.851C139.961 159.078 140.616 159.42 141.163 159.876C141.721 160.332 142.154 160.89 142.461 161.551C142.78 162.2 142.94 162.952 142.94 163.807C142.94 164.809 142.746 165.698 142.359 166.473C141.972 167.236 141.442 167.88 140.77 168.404C140.109 168.917 139.328 169.304 138.428 169.566C137.528 169.828 136.571 169.959 135.557 169.959C135.022 169.959 134.475 169.925 133.917 169.856Z" fill="white"/>
</svg>
